<svg xmlns="http://www.w3.org/2000/svg" viewBox="0 0 512 512" width="512" height="512">
  <rect width="512" height="512" rx="80" fill="#0891b2"/>
  <circle cx="256" cy="256" r="180" fill="none" stroke="#ffffff" stroke-width="10"/>
  <circle cx="256" cy="256" r="8" fill="#ffffff"/>
  <!-- Hour hand -->
  <line x1="256" y1="256" x2="256" y2="140" stroke="#ffffff" stroke-width="10" stroke-linecap="round" transform="rotate(30 256 256)"/>
  <!-- Minute hand -->
  <line x1="256" y1="256" x2="256" y2="105" stroke="#ffffff" stroke-width="6" stroke-linecap="round" transform="rotate(180 256 256)"/>
  <!-- Second hand -->
  <line x1="256" y1="256" x2="256" y2="95" stroke="#e0f2fe" stroke-width="3" stroke-linecap="round" transform="rotate(90 256 256)"/>
  <!-- Hour markers -->
  <line x1="256" y1="84" x2="256" y2="100" stroke="#ffffff" stroke-width="5" stroke-linecap="round"/>
  <line x1="256" y1="84" x2="256" y2="100" stroke="#ffffff" stroke-width="5" stroke-linecap="round" transform="rotate(30 256 256)"/>
  <line x1="256" y1="84" x2="256" y2="100" stroke="#ffffff" stroke-width="5" stroke-linecap="round" transform="rotate(60 256 256)"/>
  <line x1="256" y1="84" x2="256" y2="100" stroke="#ffffff" stroke-width="5" stroke-linecap="round" transform="rotate(90 256 256)"/>
  <line x1="256" y1="84" x2="256" y2="100" stroke="#ffffff" stroke-width="5" stroke-linecap="round" transform="rotate(120 256 256)"/>
  <line x1="256" y1="84" x2="256" y2="100" stroke="#ffffff" stroke-width="5" stroke-linecap="round" transform="rotate(150 256 256)"/>
  <line x1="256" y1="84" x2="256" y2="100" stroke="#ffffff" stroke-width="5" stroke-linecap="round" transform="rotate(180 256 256)"/>
  <line x1="256" y1="84" x2="256" y2="100" stroke="#ffffff" stroke-width="5" stroke-linecap="round" transform="rotate(210 256 256)"/>
  <line x1="256" y1="84" x2="256" y2="100" stroke="#ffffff" stroke-width="5" stroke-linecap="round" transform="rotate(240 256 256)"/>
  <line x1="256" y1="84" x2="256" y2="100" stroke="#ffffff" stroke-width="5" stroke-linecap="round" transform="rotate(270 256 256)"/>
  <line x1="256" y1="84" x2="256" y2="100" stroke="#ffffff" stroke-width="5" stroke-linecap="round" transform="rotate(300 256 256)"/>
  <line x1="256" y1="84" x2="256" y2="100" stroke="#ffffff" stroke-width="5" stroke-linecap="round" transform="rotate(330 256 256)"/>
</svg>
